<svg xmlns="http://www.w3.org/2000/svg" xmlns:xlink="http://www.w3.org/1999/xlink" width="500" zoomAndPan="magnify" viewBox="0 0 375 374.999991" height="500" preserveAspectRatio="xMidYMid meet" version="1.0"><defs><g/></defs><g fill="#ff5757" fill-opacity="1"><g transform="translate(37.500002, 285.904513)"><g><path d="M 48.609375 -200.457031 C 25.308594 -200.457031 12.527344 -187.929688 12.527344 -164.375 L 12.527344 -105.242188 C 12.527344 -100.480469 14.785156 -97.472656 19.292969 -95.96875 L 78.679688 -76.425781 L 78.679688 -43.097656 C 78.679688 -36.332031 75.171875 -33.074219 68.65625 -33.074219 L 56.628906 -33.074219 C 50.367188 -33.074219 46.605469 -36.332031 46.605469 -43.097656 L 46.605469 -62.394531 C 46.605469 -65.148438 45.355469 -66.402344 42.597656 -66.402344 L 16.539062 -66.402344 C 14.03125 -66.402344 12.527344 -65.148438 12.527344 -62.394531 L 12.527344 -36.082031 C 12.527344 -12.527344 25.308594 0 48.609375 0 L 76.675781 0 C 100.230469 0 112.757812 -12.527344 112.757812 -36.082031 L 112.757812 -93.964844 C 112.757812 -98.726562 110.503906 -101.480469 106.242188 -103.238281 L 46.605469 -122.78125 L 46.605469 -157.359375 C 46.605469 -163.875 50.367188 -167.382812 56.628906 -167.382812 L 68.65625 -167.382812 C 75.421875 -167.382812 78.679688 -163.875 78.679688 -157.359375 L 78.679688 -137.816406 C 78.679688 -135.308594 80.183594 -133.804688 82.6875 -133.804688 L 108.75 -133.804688 C 111.503906 -133.804688 112.757812 -135.308594 112.757812 -137.816406 L 112.757812 -164.375 C 112.757812 -187.929688 100.230469 -200.457031 76.675781 -200.457031 Z M 48.609375 -200.457031 "/></g></g></g><g fill="#ff5757" fill-opacity="1"><g transform="translate(167.777103, 285.904513)"><g><path d="M 48.609375 -200.457031 C 25.308594 -200.457031 12.527344 -187.929688 12.527344 -164.375 L 12.527344 -105.242188 C 12.527344 -100.480469 14.785156 -97.472656 19.292969 -95.96875 L 78.679688 -76.425781 L 78.679688 -43.097656 C 78.679688 -36.332031 75.171875 -33.074219 68.65625 -33.074219 L 56.628906 -33.074219 C 50.367188 -33.074219 46.605469 -36.332031 46.605469 -43.097656 L 46.605469 -62.394531 C 46.605469 -65.148438 45.355469 -66.402344 42.597656 -66.402344 L 16.539062 -66.402344 C 14.03125 -66.402344 12.527344 -65.148438 12.527344 -62.394531 L 12.527344 -36.082031 C 12.527344 -12.527344 25.308594 0 48.609375 0 L 76.675781 0 C 100.230469 0 112.757812 -12.527344 112.757812 -36.082031 L 112.757812 -93.964844 C 112.757812 -98.726562 110.503906 -101.480469 106.242188 -103.238281 L 46.605469 -122.78125 L 46.605469 -157.359375 C 46.605469 -163.875 50.367188 -167.382812 56.628906 -167.382812 L 68.65625 -167.382812 C 75.421875 -167.382812 78.679688 -163.875 78.679688 -157.359375 L 78.679688 -137.816406 C 78.679688 -135.308594 80.183594 -133.804688 82.6875 -133.804688 L 108.75 -133.804688 C 111.503906 -133.804688 112.757812 -135.308594 112.757812 -137.816406 L 112.757812 -164.375 C 112.757812 -187.929688 100.230469 -200.457031 76.675781 -200.457031 Z M 48.609375 -200.457031 "/></g></g></g></svg>